HIERARCHY
ROOT Hips
{
	OFFSET 0.000000 0.000000 0.000000 
	CHANNELS 6 Xposition Yposition Zposition Zrotation Yrotation Xrotation
	JOINT LeftUpLeg
	{
		OFFSET 1.363060 -1.794630 0.839290 
		CHANNELS 3 Zrotation Yrotation Xrotation
		JOINT LeftLeg
		{
			OFFSET 2.448110 -6.726130 0.000000 
			CHANNELS 3 Zrotation Yrotation Xrotation
			JOINT LeftFoot
			{
				OFFSET 2.562200 -7.039590 0.000000 
				CHANNELS 3 Zrotation Yrotation Xrotation
				JOINT LeftToeBase
				{
					OFFSET 0.157640 -0.433110 2.322550 
					CHANNELS 3 Zrotation Yrotation Xrotation
					End Site
					{
						OFFSET 0.000000 0.000000 0.000000 
					}
				}
			}
		}
	}
	JOINT RightUpLeg
	{
		OFFSET -1.305520 -1.794630 0.839290 
		CHANNELS 3 Zrotation Yrotation Xrotation
		JOINT RightLeg
		{
			OFFSET -2.542530 -6.985550 0.000000 
			CHANNELS 3 Zrotation Yrotation Xrotation
			JOINT RightFoot
			{
				OFFSET -2.568260 -7.056230 0.000000 
				CHANNELS 3 Zrotation Yrotation Xrotation
				JOINT RightToeBase
				{
					OFFSET -0.164730 -0.452590 2.363150 
					CHANNELS 3 Zrotation Yrotation Xrotation
					End Site
					{
						OFFSET 0.000000 0.000000 0.000000 
					}
				}
			}
		}
	}
	JOINT Spine
	{
		OFFSET 0.028270 2.035590 -0.193380 
		CHANNELS 3 Zrotation Yrotation Xrotation
		JOINT Spine1
		{
			OFFSET 0.056720 2.048850 -0.042750 
			CHANNELS 3 Zrotation Yrotation Xrotation
			JOINT Neck1
			{
				OFFSET -0.054170 1.746240 0.172020 
				CHANNELS 3 Zrotation Yrotation Xrotation
				JOINT Head
				{
					OFFSET 0.104070 1.761360 -0.123970 
					CHANNELS 3 Zrotation Yrotation Xrotation
					End Site
					{
						OFFSET 0.000000 0.000000 0.000000 
					}
				}
			}
			JOINT LeftArm
			{
				OFFSET 3.362410 1.200890 -0.311210 
				CHANNELS 3 Zrotation Yrotation Xrotation
				JOINT LeftForeArm
				{
					OFFSET 4.983000 -0.000000 -0.000000 
					CHANNELS 3 Zrotation Yrotation Xrotation
					JOINT LeftHand
					{
						OFFSET 3.483560 -0.000000 -0.000000 
						CHANNELS 3 Zrotation Yrotation Xrotation
						JOINT LeftHandIndex1
						{
							OFFSET 0.715260 -0.000000 -0.000000 
							CHANNELS 3 Zrotation Yrotation Xrotation
							End Site
							{
								OFFSET 0.000000 0.000000 0.000000 
							}
						}
					}
				}
			}
			JOINT RightArm
			{
				OFFSET -3.136600 1.374050 -0.404650 
				CHANNELS 3 Zrotation Yrotation Xrotation
				JOINT RightForeArm
				{
					OFFSET -5.241900 -0.000000 -0.000000 
					CHANNELS 3 Zrotation Yrotation Xrotation
					JOINT RightHand
					{
						OFFSET -3.444170 -0.000000 -0.000000 
						CHANNELS 3 Zrotation Yrotation Xrotation
						JOINT RightHandIndex1
						{
							OFFSET -0.622530 -0.000000 -0.000000 
							CHANNELS 3 Zrotation Yrotation Xrotation
							End Site
							{
								OFFSET 0.000000 0.000000 0.000000 
							}
						}
					}
				}
			}
		}
	}
}
MOTION
Frames: 10
Frame Time: 0.041667
-38.955987 17.406774 -6.881731 -66.040711 86.180420 -66.229832 -22.357871 6.671222 -1.442875 1.296954 6.782698 19.983390 -1.344803 13.307686 -19.735276 0.007200 -0.546500 -1.501600 25.912504 7.371791 -5.787051 -2.827514 -11.314264 32.736878 -0.414089 -5.702617 -21.160661 -0.109400 -2.132500 5.872000 1.334707 -0.512018 -1.024220 -2.108529 -0.312912 3.701965 6.895697 -0.072685 8.806663 -0.138200 0.429700 4.621800 -79.915420 2.245677 18.913699 7.097342 -16.500494 -1.733560 -1.054747 -0.563262 -6.111593 -7.125000 0.000000 0.000000 77.726473 -2.223056 23.479457 -14.958143 26.444650 -4.322231 0.784469 -0.161879 0.678738 7.125000 0.000000 0.000000 
-38.952390 17.404410 -6.886150 -67.210576 86.245806 -67.400590 -22.392065 6.695891 -1.477705 1.299166 6.797591 20.020327 -1.318275 13.180392 -19.712496 0.008300 -0.588500 -1.617200 25.849174 7.288200 -5.799893 -2.835868 -11.321424 32.769802 -0.417427 -5.689642 -21.165816 -0.108700 -2.125900 5.853800 1.329012 -0.487379 -1.023549 -2.125276 -0.298408 3.687760 6.927689 -0.099820 8.809100 -0.112200 0.417500 4.616800 -79.902736 2.346342 19.007617 7.198507 -16.635229 -1.760944 -1.051270 -0.567392 -6.272257 -7.125000 0.000000 0.000000 77.781018 -2.189751 23.291498 -14.875568 26.349903 -4.290417 0.785213 -0.162960 0.830149 7.125000 0.000000 0.000000 
-38.948691 17.402149 -6.892213 -68.671133 86.264848 -68.847348 -22.389491 6.648528 -1.529001 1.304777 6.819443 20.076898 -1.301085 13.106592 -19.716260 0.007900 -0.572400 -1.573000 25.837340 7.228298 -5.819112 -2.844024 -11.331284 32.806139 -0.443322 -5.593405 -21.220718 -0.110800 -2.146600 5.911100 1.333576 -0.471634 -1.019813 -2.124586 -0.288210 3.703739 6.930110 -0.141759 8.828484 -0.107500 0.398000 4.627500 -79.925161 2.388616 19.065242 7.275906 -16.738987 -1.784398 -1.054205 -0.573104 -6.392696 -7.125000 0.000000 0.000000 77.798104 -2.105465 23.154210 -14.753167 26.209443 -4.242915 0.787061 -0.173808 0.850109 7.125000 0.000000 0.000000 
-38.943552 17.399478 -6.898276 -70.440500 86.333027 -70.599359 -22.428458 6.654650 -1.580952 1.309271 6.842186 20.135441 -1.266278 12.959013 -19.729237 0.008800 -0.604500 -1.661200 25.787727 7.183698 -5.828875 -2.853857 -11.341306 32.849236 -0.453561 -5.590369 -21.301871 -0.108900 -2.127400 5.857800 1.328417 -0.452131 -1.027114 -2.145138 -0.277353 3.677322 6.929450 -0.214120 8.858080 -0.114800 0.366600 4.660000 -79.885588 2.396894 19.131418 7.319656 -16.794339 -1.795377 -1.050135 -0.577460 -6.517757 -7.125000 0.000000 0.000000 77.830382 -2.165258 23.109578 -14.749173 26.206259 -4.241643 0.787551 -0.171151 0.852690 7.125000 0.000000 0.000000 
-38.939339 17.396806 -6.904237 -72.219560 86.372495 -72.358570 -22.444341 6.629460 -1.641194 1.315586 6.868840 20.204713 -1.236496 12.834911 -19.744912 0.009300 -0.622000 -1.709300 25.765766 7.147653 -5.845451 -2.864499 -11.354097 32.897770 -0.465675 -5.575655 -21.379429 -0.108500 -2.124400 5.849400 1.328087 -0.436493 -1.029154 -2.155567 -0.267716 3.673785 6.925536 -0.258849 8.872834 -0.124100 0.347000 4.678000 -79.865638 2.423851 19.218085 7.385397 -16.881561 -1.813648 -1.048204 -0.582165 -6.655511 -7.125000 0.000000 0.000000 77.859818 -2.162848 23.015727 -14.692584 26.141444 -4.219697 0.789347 -0.171299 0.890733 7.125000 0.000000 0.000000 
-38.934920 17.393928 -6.910505 -74.061145 86.398715 -74.178373 -22.452580 6.593010 -1.701251 1.322915 6.897377 20.279992 -1.206647 12.716836 -19.775161 0.009900 -0.642600 -1.765900 25.760903 7.135237 -5.863284 -2.878121 -11.372410 32.962877 -0.478687 -5.570290 -21.479091 -0.108600 -2.124900 5.851000 1.329807 -0.424764 -1.030716 -2.161744 -0.260323 3.677277 6.913900 -0.292688 8.887369 -0.141600 0.332900 4.702800 -79.846343 2.435700 19.300688 7.447666 -16.963938 -1.831104 -1.046031 -0.586592 -6.788252 -7.125000 0.000000 0.000000 77.882244 -2.160716 22.931651 -14.635302 26.075026 -4.197039 0.790879 -0.170397 0.938391 7.125000 0.000000 0.000000 
-38.930501 17.390640 -6.917288 -75.778021 86.418267 -75.872505 -22.465175 6.548296 -1.758551 1.331041 6.928102 20.361853 -1.175697 12.603654 -19.825607 0.010600 -0.663900 -1.824500 25.761134 7.149111 -5.883236 -2.894800 -11.396345 33.044484 -0.489617 -5.581738 -21.589032 -0.108400 -2.122700 5.844900 1.333187 -0.417444 -1.028528 -2.166081 -0.256871 3.692298 6.872167 -0.329955 9.113208 -0.170200 0.329900 4.349500 -79.827602 2.432891 19.383736 7.510063 -17.049024 -1.848838 -1.043497 -0.590964 -6.921173 -7.125000 0.000000 0.000000 77.898961 -2.143997 22.846176 -14.568533 25.998578 -4.170318 0.791733 -0.168826 1.011216 7.125000 0.000000 0.000000 
-38.926596 17.387043 -6.924584 -77.240141 86.426454 -77.311123 -22.477101 6.505206 -1.819102 1.340092 6.960518 20.449213 -1.143786 12.492816 -19.890820 0.011300 -0.685200 -1.883000 25.769136 7.196877 -5.911956 -2.916204 -11.428642 33.150581 -0.500220 -5.600745 -21.708370 -0.108100 -2.120200 5.837800 1.337561 -0.407994 -1.027435 -2.159359 -0.251481 3.709558 6.849559 -0.337150 9.125738 -0.195100 0.328700 4.378600 -79.818008 2.420060 19.459212 7.575183 -17.134164 -1.867359 -1.041621 -0.594237 -7.048282 -7.125000 0.000000 0.000000 77.910542 -2.107945 22.746987 -14.482796 25.896268 -4.135400 0.792041 -0.169231 1.110732 7.125000 0.000000 0.000000 
-38.923308 17.383138 -6.932702 -78.408876 86.434442 -78.454498 -22.501428 6.461087 -1.882862 1.349579 6.993901 20.539647 -1.112380 12.390751 -19.968800 0.011900 -0.705800 -1.939700 25.772680 7.280437 -5.956943 -2.943829 -11.471564 33.288519 -0.508889 -5.633951 -21.834257 -0.106700 -2.106600 5.800400 1.342187 -0.398756 -1.027368 -2.143766 -0.247020 3.716376 6.830368 -0.344414 9.135415 -0.215700 0.327000 4.406400 -79.815797 2.406196 19.531647 7.643793 -17.223019 -1.887025 -1.039892 -0.597459 -7.172437 -7.125000 0.000000 0.000000 77.915642 -2.064958 22.644704 -14.386764 25.780601 -4.095976 0.791309 -0.170927 1.229353 7.125000 0.000000 0.000000 
-38.921458 17.379130 -6.941540 -79.391864 86.449561 -79.404874 -22.541740 6.422474 -1.964637 1.359597 7.029503 20.635060 -1.080657 12.286364 -20.045001 0.012600 -0.725900 -1.995000 25.763748 7.396897 -6.031046 -2.979353 -11.527298 33.465049 -0.515347 -5.681856 -21.965276 -0.104300 -2.082100 5.732500 1.345777 -0.390886 -1.029455 -2.121363 -0.243786 3.705552 6.820852 -0.363346 9.139743 -0.227100 0.318900 4.428300 -79.816351 2.388653 19.598935 7.711183 -17.308787 -1.906170 -1.038167 -0.599087 -7.285176 -7.125000 0.000000 0.000000 77.921792 -2.015674 22.533981 -14.283476 25.655149 -4.053608 0.790170 -0.173809 1.364115 7.125000 0.000000 0.000000 
